<?xml version="1.0" standalone="no"?>
<!DOCTYPE svg PUBLIC "-//W3C//DTD SVG 20010904//EN"
 "http://www.w3.org/TR/2001/REC-SVG-20010904/DTD/svg10.dtd">
<svg version="1.0" xmlns="http://www.w3.org/2000/svg"
 width="253.000000pt" height="253.000000pt" viewBox="0 0 253.000000 253.000000"
 preserveAspectRatio="xMidYMid meet">
<metadata>
Created by potrace 1.11, written by Peter Selinger 2001-2013
</metadata>
<g transform="translate(0.000000,253.000000) scale(0.100000,-0.100000)"
fill="#000000" stroke="none">
<path d="M500 2519 c0 -5 9 -9 20 -9 11 0 20 2 20 4 0 2 -9 6 -20 9 -11 3 -20
1 -20 -4z"/>
<path d="M560 2502 c8 -5 26 -13 40 -16 17 -5 20 -4 10 2 -8 5 -26 13 -40 16
-17 5 -20 4 -10 -2z"/>
<path d="M511 2484 c0 -11 3 -14 6 -6 3 7 2 16 -1 19 -3 4 -6 -2 -5 -13z"/>
<path d="M670 2460 c8 -5 20 -10 25 -10 6 0 3 5 -5 10 -8 5 -19 10 -25 10 -5
0 -3 -5 5 -10z"/>
<path d="M521 2444 c0 -11 3 -14 6 -6 3 7 2 16 -1 19 -3 4 -6 -2 -5 -13z"/>
<path d="M749 2429 c24 -11 46 -18 48 -15 4 4 -73 36 -85 35 -4 0 13 -9 37
-20z"/>
<path d="M532 2400 c0 -14 2 -19 5 -12 2 6 2 18 0 25 -3 6 -5 1 -5 -13z"/>
<path d="M820 2400 c8 -5 20 -10 25 -10 6 0 3 5 -5 10 -8 5 -19 10 -25 10 -5
0 -3 -5 5 -10z"/>
<path d="M880 2375 c14 -8 30 -14 35 -14 6 0 -1 6 -15 14 -14 8 -29 14 -35 14
-5 0 1 -6 15 -14z"/>
<path d="M542 2350 c0 -14 2 -19 5 -12 2 6 2 18 0 25 -3 6 -5 1 -5 -13z"/>
<path d="M970 2335 c25 -13 50 -24 55 -24 6 0 -10 11 -35 24 -25 13 -49 24
-55 24 -5 0 10 -11 35 -24z"/>
<path d="M552 2295 c0 -16 2 -22 5 -12 2 9 2 23 0 30 -3 6 -5 -1 -5 -18z"/>
<path d="M1081 2286 c10 -9 89 -46 89 -41 0 5 -75 45 -86 45 -4 0 -5 -2 -3 -4z"/>
<path d="M562 2220 c0 -19 2 -27 5 -17 2 9 2 25 0 35 -3 9 -5 1 -5 -18z"/>
<path d="M1200 2225 c0 -2 23 -16 50 -30 28 -14 50 -23 50 -20 0 2 -22 16 -50
30 -27 14 -50 23 -50 20z"/>
<path d="M660 2180 c-25 -4 -56 -10 -70 -13 -14 -3 -64 -19 -111 -37 -190 -69
-363 -209 -434 -352 -78 -159 -51 -315 63 -361 31 -13 96 -22 124 -18 4 1 0
17 -8 36 -18 45 -18 172 1 254 32 135 124 256 240 317 33 18 70 35 83 39 21 6
22 4 22 -49 l0 -56 -35 0 c-28 0 -36 -4 -40 -22 -15 -64 -295 -1383 -295
-1390 0 -4 71 -8 159 -8 l158 0 32 148 c17 81 36 173 43 205 7 40 14 54 20 45
6 -8 7 -3 4 17 -3 17 12 113 37 225 l42 195 38 9 c50 13 112 -9 141 -47 18
-25 21 -42 20 -120 -2 -75 -11 -129 -54 -292 -54 -211 -64 -298 -39 -350 19
-40 89 -75 150 -75 41 0 209 27 217 35 2 1 -10 16 -27 32 -64 65 -62 124 11
403 35 132 41 171 42 260 1 131 -15 170 -91 216 l-51 31 26 16 c122 72 222
256 209 383 -6 56 -42 143 -74 180 -82 93 -216 144 -393 149 -63 2 -135 0
-160 -5z m278 -122 c82 -39 117 -115 110 -238 -10 -174 -136 -331 -285 -355
-24 -4 -43 -3 -43 2 0 4 25 120 54 258 30 137 53 251 52 253 -2 1 -52 -4 -111
-13 -146 -20 -135 -24 -135 39 l0 54 68 11 c37 6 81 13 97 15 56 7 150 -5 193
-26z"/>
<path d="M2025 2184 c-119 -19 -247 -80 -337 -164 l-63 -57 -35 25 -35 24 34
-29 33 -29 -47 -73 c-124 -192 -189 -460 -189 -781 0 -138 4 -189 18 -239 37
-136 108 -236 207 -294 49 -29 146 -57 197 -57 l33 0 -18 -31 c-10 -18 -52
-66 -93 -108 -60 -61 -65 -67 -24 -34 28 24 71 68 95 100 24 32 48 61 52 64 5
3 50 9 102 12 169 10 320 78 424 193 55 60 120 179 105 194 -21 20 -43 13 -72
-23 -88 -110 -217 -167 -379 -167 -74 0 -82 2 -76 18 5 16 5 16 -8 0 -13 -15
-18 -15 -53 -3 -60 21 -88 46 -118 106 -75 149 -58 513 38 813 l28 88 17 -24
c10 -12 32 -48 48 -78 17 -30 31 -50 31 -44 0 9 -33 68 -79 140 -12 18 -9 31
33 110 84 164 178 244 287 244 66 0 96 -15 126 -59 44 -65 17 -219 -46 -263
-20 -14 -20 -16 -4 -30 32 -28 61 -38 110 -38 102 0 148 62 148 200 0 76 -3
91 -31 140 -35 63 -98 111 -177 136 -52 15 -225 26 -282 18z"/>
<path d="M1323 2158 c51 -36 227 -147 227 -143 0 7 -139 98 -195 129 -27 15
-42 21 -32 14z"/>
<path d="M1942 1565 c0 -5 6 -26 13 -45 7 -19 14 -28 14 -20 0 8 -6 29 -14 45
-7 17 -13 26 -13 20z"/>
<path d="M1971 1464 c0 -11 3 -14 6 -6 3 7 2 16 -1 19 -3 4 -6 -2 -5 -13z"/>
<path d="M1981 1424 c0 -11 3 -14 6 -6 3 7 2 16 -1 19 -3 4 -6 -2 -5 -13z"/>
<path d="M1992 1380 c0 -14 2 -19 5 -12 2 6 2 18 0 25 -3 6 -5 1 -5 -13z"/>
<path d="M2002 1315 c0 -16 2 -22 5 -12 2 9 2 23 0 30 -3 6 -5 -1 -5 -18z"/>
<path d="M2013 1205 c0 -38 2 -53 4 -32 2 20 2 52 0 70 -2 17 -4 1 -4 -38z"/>
<path d="M2013 1050 c0 -36 2 -50 4 -32 2 17 2 47 0 65 -2 17 -4 3 -4 -33z"/>
<path d="M2002 945 c0 -16 2 -22 5 -12 2 9 2 23 0 30 -3 6 -5 -1 -5 -18z"/>
<path d="M1992 880 c0 -14 2 -19 5 -12 2 6 2 18 0 25 -3 6 -5 1 -5 -13z"/>
<path d="M1981 834 c0 -11 3 -14 6 -6 3 7 2 16 -1 19 -3 4 -6 -2 -5 -13z"/>
<path d="M650 805 c0 -5 5 -17 10 -25 5 -8 10 -10 10 -5 0 6 -5 17 -10 25 -5
8 -10 11 -10 5z"/>
<path d="M1971 794 c0 -11 3 -14 6 -6 3 7 2 16 -1 19 -3 4 -6 -2 -5 -13z"/>
<path d="M670 755 c0 -5 5 -17 10 -25 5 -8 10 -10 10 -5 0 6 -5 17 -10 25 -5
8 -10 11 -10 5z"/>
<path d="M690 706 c0 -10 70 -146 75 -146 3 0 -11 33 -31 73 -38 74 -44 85
-44 73z"/>
<path d="M787 519 c10 -17 24 -36 32 -42 8 -7 2 7 -14 31 -32 49 -45 57 -18
11z"/>
<path d="M864 418 c40 -50 166 -152 166 -135 0 2 -19 17 -42 32 -24 16 -70 56
-102 89 -51 52 -54 54 -22 14z"/>
<path d="M1617 281 c-41 -26 -46 -36 -10 -17 17 9 35 20 38 26 8 13 6 12 -28
-9z"/>
<path d="M1047 269 c7 -7 15 -10 18 -7 3 3 -2 9 -12 12 -14 6 -15 5 -6 -5z"/>
<path d="M1552 238 c-7 -7 -11 -21 -11 -32 1 -21 1 -21 6 -1 3 11 10 26 15 33
13 15 6 16 -10 0z"/>
<path d="M1168 223 c7 -3 16 -2 19 1 4 3 -2 6 -13 5 -11 0 -14 -3 -6 -6z"/>
<path d="M1223 213 c9 -2 25 -2 35 0 9 3 1 5 -18 5 -19 0 -27 -2 -17 -5z"/>
<path d="M1350 214 c37 -8 88 -9 84 -2 -3 4 -26 7 -52 7 -26 -1 -40 -3 -32 -5z"/>
<path d="M1440 185 c0 -5 5 -17 10 -25 5 -8 10 -10 10 -5 0 6 -5 17 -10 25 -5
8 -10 11 -10 5z"/>
<path d="M1543 105 c0 -22 2 -30 4 -17 2 12 2 30 0 40 -3 9 -5 -1 -4 -23z"/>
<path d="M1471 107 c-1 -5 9 -31 20 -58 17 -38 26 -49 43 -48 18 1 18 2 3 6
-11 3 -29 28 -42 56 -13 29 -24 48 -24 44z"/>
<path d="M1551 50 c0 -8 4 -22 9 -30 12 -18 12 -2 0 25 -6 13 -9 15 -9 5z"/>
</g>
</svg>
